<svg width="58" height="58" viewBox="0 0 58 58" fill="none" xmlns="http://www.w3.org/2000/svg">
<path d="M34.4375 4.53125H23.5625C14.9237 4.53125 8.15625 15.2794 8.15625 29C8.15625 42.7206 14.9237 53.4688 23.5625 53.4688H34.4375C43.0763 53.4688 49.8438 42.7206 49.8438 29C49.8438 15.2794 43.0763 4.53125 34.4375 4.53125ZM42.8679 38.9688H37.6796C38.3197 36.5981 38.7212 34.1693 38.8781 31.7188H44.2998C44.1212 34.1849 43.6404 36.6199 42.8679 38.9688ZM38.8781 26.2812C38.7212 23.8307 38.3197 21.4019 37.6796 19.0312H42.8679C43.6404 21.3801 44.1212 23.8151 44.2998 26.2812H38.8781ZM40.1537 13.5938H35.6224C34.9852 12.3155 34.2265 11.1016 33.3568 9.96875H34.4375C35.6541 9.96875 37.8926 10.4785 40.1537 13.5938ZM16.9401 43.0106C14.7809 39.3109 13.5938 34.3355 13.5938 29C13.5938 23.6645 14.7809 18.6891 16.9401 14.9894C19.4844 10.6213 22.1827 9.96875 23.5625 9.96875C24.9423 9.96875 27.6406 10.6213 30.1849 14.9894C32.3441 18.6891 33.5312 23.6645 33.5312 29C33.5312 34.3355 32.3441 39.3109 30.1849 43.0106C27.6406 47.3787 24.9423 48.0312 23.5625 48.0312C22.1827 48.0312 19.4844 47.3787 16.9401 43.0106ZM34.4375 48.0312H33.3523C34.222 46.8984 34.9807 45.6845 35.6179 44.4062H40.1491C37.8926 47.5215 35.6541 48.0312 34.4375 48.0312Z" fill="#0AE360"/>
</svg>
